<?xml version="1.0" standalone="no"?>
<!DOCTYPE svg PUBLIC "-//W3C//DTD SVG 20010904//EN"
 "http://www.w3.org/TR/2001/REC-SVG-20010904/DTD/svg10.dtd">
<svg version="1.0" xmlns="http://www.w3.org/2000/svg"
 width="140.000000pt" height="140.000000pt" viewBox="0 0 140.000000 140.000000"
 preserveAspectRatio="xMidYMid meet">
<metadata>
Created by potrace 1.11, written by Peter Selinger 2001-2013
</metadata>
<g transform="translate(0.000000,140.000000) scale(0.100000,-0.100000)"
fill="#000000" stroke="none">
<path d="M629 1161 c-23 -23 -29 -39 -29 -70 l0 -41 58 0 c118 0 182 -38 207
-123 10 -34 15 -94 15 -184 l0 -133 52 0 c50 0 52 -2 105 -59 94 -105 187
-149 213 -102 7 14 7 28 -1 48 -6 15 -14 47 -18 71 l-8 42 31 0 c45 0 79 21
98 60 15 30 18 64 18 233 0 210 -8 254 -48 276 -14 7 -131 11 -342 11 l-322 0
-29 -29z"/>
<path d="M105 972 c-18 -4 -38 -20 -52 -41 -22 -33 -23 -42 -23 -243 0 -167 3
-215 15 -238 19 -36 43 -50 89 -50 33 0 36 -2 36 -29 0 -16 -7 -48 -15 -71
-29 -82 11 -112 89 -66 42 25 166 143 166 158 0 5 75 8 166 8 l166 0 29 29 29
29 0 226 0 226 -29 32 -29 33 -304 2 c-166 1 -316 -2 -333 -5z m336 -171 c22
-51 36 -61 96 -61 48 0 49 -17 3 -58 l-42 -37 12 -48 c7 -26 9 -51 6 -55 -4
-4 -25 3 -46 16 -21 12 -46 22 -55 22 -9 0 -34 -10 -55 -22 -21 -13 -42 -20
-46 -16 -3 4 -1 28 5 54 l12 47 -41 42 c-44 45 -43 55 4 55 56 0 70 10 93 61
12 27 24 49 27 49 3 0 15 -22 27 -49z"/>
</g>
</svg>
